<svg xmlns="http://www.w3.org/2000/svg" xmlns:xlink="http://www.w3.org/1999/xlink" viewBox="0,0,256,256" width="30px" height="30px" fill-rule="nonzero"><g fill="white" fill-rule="nonzero" stroke="none" stroke-width="1" stroke-linecap="butt" stroke-linejoin="miter" stroke-miterlimit="10" stroke-dasharray="" stroke-dashoffset="0" font-family="none" font-weight="none" font-size="none" text-anchor="none" style="mix-blend-mode: normal"><g transform="scale(10.66667,10.66667)"><path d="M5.67969,2l1.47852,5.34375v2.5625h1.28125v-2.5625l1.49805,-5.34375h-1.29102l-0.53711,2.43164c-0.151,0.71 -0.24702,1.21463 -0.29102,1.51563h-0.03906c-0.063,-0.421 -0.15902,-0.92939 -0.29102,-1.52539l-0.51758,-2.42187zM11.43164,4.01758c-0.434,0 -0.78378,0.08481 -1.05078,0.25781c-0.267,0.172 -0.46384,0.44722 -0.58984,0.82422c-0.125,0.377 -0.1875,0.87605 -0.1875,1.49805v0.83984c0,0.615 0.05406,1.10752 0.16406,1.47852c0.11,0.371 0.29564,0.64431 0.55664,0.82031c0.261,0.176 0.62012,0.26367 1.07813,0.26367c0.446,0 0.80055,-0.08677 1.06055,-0.25977c0.26,-0.173 0.44845,-0.44436 0.56445,-0.81836c0.116,-0.374 0.17383,-0.86838 0.17383,-1.48437v-0.83984c0,-0.621 -0.05874,-1.11819 -0.17773,-1.49219c-0.119,-0.373 -0.30841,-0.64822 -0.56641,-0.82422c-0.258,-0.176 -0.59839,-0.26367 -1.02539,-0.26367zM13.87891,4.13086v4.31445c0,0.534 0.08948,0.92673 0.27149,1.17773c0.182,0.251 0.46466,0.37695 0.84766,0.37695c0.552,0 0.96814,-0.26678 1.24414,-0.80078h0.02734l0.11328,0.70703h1.01758v-5.77539h-1.29883v4.58789c-0.05,0.107 -0.12647,0.19467 -0.23047,0.26367c-0.104,0.07 -0.21122,0.10352 -0.32422,0.10352c-0.132,0 -0.2262,-0.05406 -0.2832,-0.16406c-0.057,-0.11 -0.08594,-0.29473 -0.08594,-0.55273v-4.23828zM11.40234,4.91211c0.182,0 0.31081,0.09511 0.38281,0.28711c0.072,0.191 0.10742,0.49516 0.10742,0.91016v1.79883c0,0.427 -0.03542,0.73583 -0.10742,0.92383c-0.072,0.188 -0.19986,0.2822 -0.38086,0.2832c-0.182,0 -0.30795,-0.0952 -0.37695,-0.2832c-0.07,-0.188 -0.10352,-0.49683 -0.10352,-0.92383v-1.79883c0,-0.414 0.03542,-0.71816 0.10742,-0.91016c0.072,-0.191 0.19509,-0.28711 0.37109,-0.28711zM5,11c-1.1,0 -2,0.9 -2,2v7c0,1.1 0.9,2 2,2h14c1.1,0 2,-0.9 2,-2v-7c0,-1.1 -0.9,-2 -2,-2zM12.04883,13h1.05664v2.56836h0.00781c0.095,-0.186 0.23125,-0.33522 0.40625,-0.44922c0.175,-0.114 0.36441,-0.16992 0.56641,-0.16992c0.26,0 0.46333,0.06903 0.61133,0.20703c0.148,0.138 0.25626,0.36097 0.32226,0.66797c0.066,0.308 0.09766,0.73525 0.09766,1.28125v0.77148h0.00195c0,0.727 -0.08867,1.25956 -0.26367,1.60156c-0.175,0.342 -0.44736,0.51367 -0.81836,0.51367c-0.207,0 -0.39445,-0.04758 -0.56445,-0.14258c-0.17,-0.095 -0.29781,-0.22563 -0.38281,-0.39062h-0.02344l-0.11133,0.46094h-0.90625zM5.48633,13.24609h3.25195v0.88476h-1.08984v5.78906h-1.07227v-5.78906h-1.08984zM17.09766,14.95117c0.376,0 0.66519,0.06903 0.86719,0.20703c0.201,0.138 0.34278,0.35353 0.42578,0.64453c0.082,0.292 0.12305,0.69499 0.12305,1.20899v0.83594h-1.83594v0.24805c0,0.313 0.00834,0.54713 0.02734,0.70313c0.019,0.156 0.05723,0.2708 0.11523,0.3418c0.058,0.072 0.14753,0.10742 0.26953,0.10742c0.164,0 0.27689,-0.06441 0.33789,-0.19141c0.061,-0.127 0.09461,-0.33777 0.09961,-0.63477l0.94727,0.05469c0.005,0.042 0.00781,0.10178 0.00781,0.17578c0,0.451 -0.12409,0.78777 -0.37109,1.00977c-0.247,0.223 -0.59392,0.33398 -1.04492,0.33398c-0.541,0 -0.92067,-0.17077 -1.13867,-0.50977c-0.218,-0.339 -0.32617,-0.86322 -0.32617,-1.57422v-0.85156c0,-0.732 0.11289,-1.26652 0.33789,-1.60352c0.225,-0.337 0.6122,-0.50586 1.1582,-0.50586zM8.41016,15.04492h1.09961v3.58008c0,0.217 0.02427,0.37284 0.07227,0.46484c0.048,0.093 0.12628,0.13867 0.23828,0.13867c0.095,0 0.18839,-0.02889 0.27539,-0.08789c0.088,-0.058 0.15036,-0.13266 0.19336,-0.22266v-3.87305h1.09961v4.875h-0.00195h-0.85937l-0.09375,-0.59766h-0.02539c-0.234,0.452 -0.58378,0.67773 -1.05078,0.67773c-0.324,0 -0.56084,-0.10636 -0.71484,-0.31836c-0.154,-0.212 -0.23242,-0.54414 -0.23242,-0.99414zM17.07422,15.69336c-0.117,0 -0.20377,0.03552 -0.25977,0.10352c-0.056,0.069 -0.09333,0.18189 -0.11133,0.33789c-0.019,0.156 -0.02734,0.39294 -0.02734,0.71094v0.34961h0.80273v-0.34961c0,-0.313 -0.01025,-0.54894 -0.03125,-0.71094c-0.02,-0.162 -0.05923,-0.2758 -0.11523,-0.3418c-0.056,-0.066 -0.14081,-0.09961 -0.25781,-0.09961zM13.5918,15.72852c-0.106,0 -0.20297,0.04195 -0.29297,0.12695c-0.09,0.085 -0.15441,0.19417 -0.19141,0.32617v2.76758c0.048,0.085 0.1105,0.14841 0.1875,0.19141c0.077,0.042 0.159,0.06445 0.25,0.06445c0.117,0 0.20834,-0.04195 0.27734,-0.12695c0.069,-0.085 0.11944,-0.22769 0.14844,-0.42969c0.029,-0.201 0.04297,-0.48094 0.04297,-0.83594v-0.62695c0,-0.382 -0.01116,-0.67581 -0.03516,-0.88281c-0.024,-0.207 -0.06695,-0.35636 -0.12695,-0.44336c-0.061,-0.087 -0.14776,-0.13086 -0.25976,-0.13086z"></path></g></g></svg>