<svg xmlns="http://www.w3.org/2000/svg" xmlns:xlink="http://www.w3.org/1999/xlink" viewBox="0,0,256,256" width="30px" height="30px" fill-rule="nonzero"><g fill="white" fill-rule="nonzero" stroke="none" stroke-width="1" stroke-linecap="butt" stroke-linejoin="miter" stroke-miterlimit="10" stroke-dasharray="" stroke-dashoffset="0" font-family="none" font-weight="none" font-size="none" text-anchor="none" style="mix-blend-mode: normal"><g transform="scale(10.66667,10.66667)"><path d="M12,2c-5.523,0 -10,4.477 -10,10c0,5.013 3.693,9.153 8.505,9.876v-7.226h-2.474v-2.629h2.474v-1.749c0,-2.896 1.411,-4.167 3.818,-4.167c1.153,0 1.762,0.085 2.051,0.124v2.294h-1.642c-1.022,0 -1.379,0.969 -1.379,2.061v1.437h2.995l-0.406,2.629h-2.588v7.247c4.881,-0.661 8.646,-4.835 8.646,-9.897c0,-5.523 -4.477,-10 -10,-10z"></path></g></g></svg>